<svg width="156" height="199" viewBox="0 0 156 199" fill="none" xmlns="http://www.w3.org/2000/svg">
<path d="M0.13049 192.506C-0.142292 192.986 0.0258677 193.597 0.506085 193.87L8.33168 198.315C8.81189 198.588 9.42232 198.419 9.6951 197.939C9.96788 197.459 9.79972 196.849 9.31951 196.576L2.36343 192.624L6.31475 185.668C6.58753 185.188 6.41937 184.578 5.93915 184.305C5.45893 184.032 4.84851 184.2 4.57573 184.68L0.13049 192.506ZM1.26559 193.964C1.59501 193.873 1.92371 193.782 2.25168 193.69L1.71173 191.764C1.38669 191.855 1.06092 191.946 0.734414 192.036L1.26559 193.964ZM4.21077 193.131C4.8609 192.942 5.50813 192.751 6.15247 192.558L5.57738 190.642C4.93889 190.834 4.29752 191.023 3.65325 191.21L4.21077 193.131ZM8.07687 191.97C8.71546 191.772 9.35118 191.572 9.98405 191.369L9.37376 189.464C8.74676 189.665 8.11691 189.864 7.48418 190.06L8.07687 191.97ZM11.8741 190.754C12.5144 190.542 13.1517 190.328 13.7861 190.111L13.1403 188.219C12.5119 188.433 11.8805 188.645 11.2462 188.855L11.8741 190.754ZM15.7088 189.445C16.3466 189.221 16.9814 188.994 17.6133 188.764L16.931 186.884C16.3052 187.111 15.6765 187.336 15.0447 187.559L15.7088 189.445ZM19.4997 188.069C20.1255 187.835 20.7483 187.599 21.3682 187.36L20.6495 185.494C20.0357 185.73 19.419 185.964 18.7992 186.196L19.4997 188.069ZM23.2188 186.637C23.8506 186.387 24.4793 186.134 25.1049 185.879L24.3495 184.027C23.7301 184.28 23.1076 184.53 22.482 184.778L23.2188 186.637ZM26.9806 185.103C27.6027 184.842 28.2216 184.578 28.8375 184.312L28.0448 182.476C27.4352 182.739 26.8224 183 26.2065 183.259L26.9806 185.103ZM30.6757 183.508C31.2853 183.237 31.8918 182.965 32.4953 182.689L31.6656 180.87C31.0683 181.142 30.4679 181.412 29.8645 181.68L30.6757 183.508ZM34.3152 181.848C34.9311 181.56 35.5438 181.269 36.1532 180.976L35.286 179.174C34.6829 179.464 34.0765 179.752 33.4669 180.037L34.3152 181.848ZM37.9718 180.089C38.5748 179.791 39.1745 179.491 39.771 179.188L38.8663 177.404C38.276 177.704 37.6825 178.001 37.0858 178.296L37.9718 180.089ZM41.551 178.274C42.1412 177.966 42.7281 177.657 43.3119 177.345L42.3701 175.581C41.7924 175.889 41.2116 176.195 40.6277 176.499L41.551 178.274ZM45.1024 176.377C45.6963 176.052 46.2869 175.724 46.8742 175.394L45.8946 173.651C45.3136 173.977 44.7293 174.301 44.1417 174.623L45.1024 176.377ZM48.626 174.398C49.2067 174.063 49.7841 173.727 50.3582 173.388L49.3414 171.665C48.7735 172.001 48.2023 172.334 47.6278 172.665L48.626 174.398ZM52.0706 172.364C52.6497 172.014 53.2253 171.662 53.7976 171.307L52.7439 169.607C52.1778 169.958 51.6083 170.307 51.0355 170.653L52.0706 172.364ZM55.5146 170.23C56.0835 169.868 56.6491 169.505 57.2113 169.139L56.1207 167.462C55.5646 167.824 55.0052 168.184 54.4424 168.541L55.5146 170.23ZM58.8879 168.035C59.4434 167.665 59.9956 167.293 60.5444 166.919L59.4177 165.266C58.8748 165.637 58.3286 166.005 57.7791 166.371L58.8879 168.035ZM62.208 165.771C62.7632 165.383 63.315 164.994 63.8633 164.602L62.7004 162.975C62.1581 163.362 61.6124 163.748 61.0632 164.131L62.208 165.771ZM65.4979 163.42C66.0393 163.024 66.5774 162.626 67.1121 162.226L65.9138 160.625C65.385 161.02 64.8528 161.414 64.3172 161.806L65.4979 163.42ZM68.7059 161.02C69.2424 160.609 69.7753 160.196 70.3048 159.782L69.0718 158.207C68.548 158.617 68.0209 159.025 67.4903 159.431L68.7059 161.02ZM71.8922 158.524C72.4178 158.103 72.94 157.68 73.4587 157.255L72.1913 155.708C71.6782 156.129 71.1617 156.547 70.6418 156.964L71.8922 158.524ZM75.0047 155.975C75.5166 155.546 76.0251 155.115 76.5302 154.683L75.2294 153.164C74.7298 153.592 74.2268 154.018 73.7205 154.442L75.0047 155.975ZM78.062 153.357C78.5703 152.912 79.0751 152.465 79.5765 152.016L78.2428 150.526C77.7468 150.97 77.2475 151.412 76.7446 151.852L78.062 153.357ZM81.0702 150.665C81.5646 150.213 82.0556 149.759 82.5432 149.303L81.1775 147.842C80.6952 148.292 80.2094 148.742 79.7203 149.189L81.0702 150.665ZM83.9992 147.927C84.4889 147.46 84.9752 146.99 85.458 146.519L84.0611 145.088C83.5835 145.554 83.1024 146.018 82.6179 146.481L83.9992 147.927ZM86.8958 145.101C87.3716 144.626 87.844 144.15 88.3129 143.673L86.8858 142.271C86.4218 142.744 85.9545 143.215 85.4837 143.684L86.8958 145.101ZM89.7095 142.235C90.1753 141.75 90.6377 141.264 91.0966 140.777L89.6402 139.406C89.1861 139.888 88.7286 140.369 88.2676 140.849L89.7095 142.235ZM92.476 139.295C92.9323 138.8 93.3852 138.304 93.8346 137.805L92.3497 136.466C91.905 136.959 91.4568 137.45 91.0052 137.94L92.476 139.295ZM95.1727 136.307C95.6153 135.806 96.0545 135.304 96.4903 134.8L94.9781 133.491C94.5467 133.99 94.112 134.487 93.674 134.983L95.1727 136.307ZM97.8066 133.263C98.2428 132.749 98.6756 132.233 99.105 131.716L97.5662 130.438C97.1411 130.95 96.7128 131.461 96.281 131.97L97.8066 133.263ZM100.383 130.161C100.805 129.641 101.225 129.12 101.64 128.599L100.076 127.352C99.6644 127.869 99.2495 128.384 98.8312 128.899L100.383 130.161ZM102.885 127.02C103.301 126.488 103.713 125.954 104.122 125.419L102.533 124.204C102.128 124.734 101.72 125.262 101.308 125.79L102.885 127.02ZM105.339 123.812C105.741 123.275 106.14 122.737 106.535 122.198L104.923 121.015C104.531 121.548 104.136 122.081 103.738 122.612L105.339 123.812ZM107.712 120.58C108.107 120.031 108.498 119.481 108.886 118.931L107.251 117.779C106.867 118.324 106.479 118.868 106.088 119.412L107.712 120.58ZM110.041 117.276C110.423 116.723 110.801 116.17 111.176 115.616L109.52 114.494C109.149 115.043 108.774 115.591 108.396 116.139L110.041 117.276ZM112.292 113.951C112.664 113.391 113.033 112.829 113.398 112.268L111.721 111.177C111.359 111.734 110.994 112.29 110.625 112.846L112.292 113.951ZM114.492 110.568C114.854 110.001 115.212 109.434 115.566 108.865L113.87 107.806C113.519 108.369 113.164 108.931 112.806 109.493L114.492 110.568ZM116.621 107.16C116.971 106.589 117.318 106.017 117.661 105.444L115.947 104.415C115.606 104.982 115.262 105.549 114.916 106.116L116.621 107.16ZM118.695 103.705C119.037 103.124 119.375 102.544 119.709 101.963L117.977 100.964C117.645 101.54 117.31 102.115 116.971 102.69L118.695 103.705ZM120.704 100.221C121.033 99.6392 121.359 99.0576 121.681 98.4759L119.932 97.5065C119.612 98.0833 119.289 98.66 118.963 99.2365L120.704 100.221ZM122.655 96.6997C122.977 96.1076 123.296 95.5155 123.611 94.9235L121.845 93.9835C121.533 94.5707 121.217 95.1579 120.898 95.7451L122.655 96.6997ZM124.547 93.1478C124.856 92.5561 125.162 91.9645 125.464 91.3731L123.684 90.4619C123.384 91.0485 123.08 91.6354 122.774 92.2223L124.547 93.1478ZM126.379 89.5674C126.682 88.9646 126.981 88.3622 127.277 87.7601L125.482 86.8775C125.188 87.4749 124.892 88.0726 124.592 88.6706L126.379 89.5674ZM128.156 85.9552C128.446 85.3539 128.732 84.7532 129.016 84.153L127.208 83.2983C126.926 83.8939 126.642 84.49 126.354 85.0866L128.156 85.9552ZM129.874 82.3208C130.157 81.7085 130.438 81.0969 130.715 80.486L128.894 79.6589C128.619 80.2652 128.341 80.8723 128.059 81.4799L129.874 82.3208ZM131.539 78.6558C131.81 78.0465 132.078 77.438 132.344 76.8304L130.511 76.0301C130.247 76.6332 129.981 77.2373 129.712 77.8421L131.539 78.6558ZM133.147 74.9719C133.413 74.3514 133.675 73.7319 133.935 73.1136L132.09 72.3398C131.833 72.9538 131.572 73.5688 131.308 74.1849L133.147 74.9719ZM134.704 71.2621C134.957 70.6462 135.208 70.0314 135.455 69.418L133.6 68.6697C133.355 69.279 133.106 69.8895 132.854 70.5012L134.704 71.2621ZM136.208 67.5321C136.456 66.9048 136.702 66.2789 136.944 65.6546L135.079 64.9316C134.838 65.5518 134.595 66.1735 134.349 66.7967L136.208 67.5321ZM137.661 63.7865C137.898 63.1614 138.133 62.5379 138.365 61.9163L136.491 61.2177C136.261 61.8353 136.027 62.4547 135.791 63.0758L137.661 63.7865ZM139.067 60.0125C139.299 59.3799 139.527 58.7492 139.752 58.1206L137.869 57.4459C137.646 58.0706 137.419 58.6973 137.189 59.326L139.067 60.0125ZM140.419 56.2413C140.643 55.6051 140.863 54.9713 141.081 54.3399L139.19 53.6881C138.974 54.3158 138.755 54.9458 138.532 55.5781L140.419 56.2413ZM141.735 52.4243C141.95 51.7883 142.162 51.1549 142.371 50.5242L140.473 49.8947C140.265 50.5218 140.054 51.1516 139.84 51.7839L141.735 52.4243ZM142.99 48.6396C143.201 47.9902 143.41 47.3438 143.615 46.7006L141.71 46.0925C141.505 46.7322 141.298 47.375 141.088 48.0208L142.99 48.6396ZM144.222 44.7805C144.421 44.1437 144.618 43.5103 144.811 42.8803L142.9 42.2925C142.707 42.9193 142.512 43.5494 142.313 44.1828L144.222 44.7805ZM145.399 40.9514C145.595 40.3012 145.788 39.655 145.979 39.0127L144.061 38.4445C143.872 39.0836 143.679 39.7267 143.484 40.3736L145.399 40.9514ZM146.541 37.0983C146.729 36.4537 146.913 35.8134 147.095 35.1777L145.172 34.6276C144.991 35.2604 144.807 35.8977 144.621 36.5392L146.541 37.0983ZM147.65 33.2228C147.832 32.5761 148.01 31.9343 148.187 31.2976L146.259 30.7644C146.084 31.3984 145.905 32.0375 145.724 32.6814L147.65 33.2228ZM148.713 29.3795C148.893 28.7179 149.07 28.0623 149.244 27.4128L147.313 26.8948C147.139 27.5419 146.963 28.195 146.783 28.854L148.713 29.3795ZM149.758 25.4828C149.93 24.8343 150.098 24.1923 150.264 23.5571L148.329 23.0521C148.164 23.6854 147.996 24.3253 147.825 24.9716L149.758 25.4828ZM150.775 21.5865C150.942 20.9372 151.107 20.2955 151.269 19.6618L149.331 19.1674C149.169 19.7997 149.005 20.4397 148.838 21.0872L150.775 21.5865ZM151.763 17.7138C151.931 17.0508 152.096 16.3972 152.257 15.7534L150.318 15.2662C150.156 15.9091 149.992 16.5617 149.824 17.2235L151.763 17.7138ZM152.734 13.8516C152.903 13.1769 153.068 12.5139 153.231 11.8632L151.291 11.3781C151.128 12.0291 150.962 12.6917 150.794 13.3661L152.734 13.8516ZM153.713 9.93888C153.88 9.27361 154.043 8.62262 154.204 7.98626L152.265 7.49608C152.104 8.13405 151.94 8.78634 151.773 9.45241L153.713 9.93888ZM154.698 6.04729C154.867 5.38546 155.034 4.7419 155.198 4.11711L153.263 3.60979C153.098 4.2387 152.931 4.88583 152.76 5.55048L154.698 6.04729ZM155.713 2.18388C155.797 1.87256 155.881 1.56682 155.964 1.26674L154.036 0.733264C153.952 1.03699 153.868 1.34613 153.782 1.66057L155.713 2.18388Z" fill="black"/>
</svg>
