<svg width="216" height="184" viewBox="0 0 216 184" fill="none" xmlns="http://www.w3.org/2000/svg">
<path d="M0.177861 176.431C-0.136547 176.885 -0.0233417 177.508 0.430713 177.822L7.82996 182.946C8.28402 183.26 8.90698 183.147 9.22139 182.693C9.5358 182.239 9.42259 181.616 8.96854 181.301L2.39143 176.747L6.94572 170.17C7.26013 169.716 7.14692 169.093 6.69287 168.779C6.23881 168.464 5.61585 168.577 5.30144 169.031L0.177861 176.431ZM1.17879 177.984C1.51642 177.923 1.8535 177.861 2.19002 177.799L1.82788 175.832C1.49288 175.894 1.15732 175.955 0.821206 176.016L1.17879 177.984ZM4.20253 177.424C4.87117 177.297 5.5376 177.17 6.20183 177.041L5.8214 175.078C5.16022 175.206 4.49685 175.333 3.83126 175.458L4.20253 177.424ZM8.18796 176.651C8.84782 176.52 9.50549 176.388 10.161 176.255L9.76211 174.295C9.1097 174.428 8.45511 174.559 7.79833 174.69L8.18796 176.651ZM12.1209 175.851C12.7721 175.715 13.421 175.578 14.0678 175.44L13.6504 173.484C13.0067 173.622 12.3608 173.758 11.7128 173.893L12.1209 175.851ZM16.0018 175.023C16.6589 174.879 17.3137 174.734 17.9663 174.589L17.53 172.637C16.8806 172.782 16.2289 172.926 15.575 173.069L16.0018 175.023ZM19.9627 174.137C20.6258 173.985 21.2866 173.832 21.9451 173.678L21.489 171.731C20.8338 171.884 20.1763 172.036 19.5165 172.187L19.9627 174.137ZM23.9134 173.212C24.5672 173.055 25.2186 172.897 25.8678 172.738L25.3918 170.796C24.746 170.954 24.0979 171.111 23.4474 171.267L23.9134 173.212ZM27.8083 172.257C28.4528 172.096 29.095 171.933 29.7349 171.77L29.239 169.832C28.6024 169.995 27.9635 170.157 27.3224 170.317L27.8083 172.257ZM31.6478 171.275C32.3074 171.102 32.9646 170.929 33.6194 170.754L33.103 168.821C32.4517 168.995 31.798 169.168 31.1418 169.34L31.6478 171.275ZM35.5906 170.221C36.2452 170.042 36.8973 169.862 37.547 169.681L37.0094 167.754C36.3633 167.935 35.7147 168.114 35.0637 168.292L35.5906 170.221ZM39.4885 169.133C40.1332 168.949 40.7754 168.764 41.4152 168.578L40.8564 166.658C40.2201 166.843 39.5814 167.027 38.9403 167.21L39.4885 169.133ZM43.3272 168.016C43.9621 167.827 44.5946 167.638 45.2246 167.447L44.6443 165.533C44.0179 165.723 43.389 165.911 42.7577 166.099L43.3272 168.016ZM47.151 166.857C47.8043 166.654 48.455 166.451 49.103 166.246L48.5005 164.339C47.8563 164.543 47.2093 164.745 46.5598 164.946L47.151 166.857ZM51.0393 165.628C51.682 165.421 52.3222 165.212 52.9598 165.003L52.3347 163.103C51.7009 163.311 51.0645 163.519 50.4255 163.725L51.0393 165.628ZM54.8646 164.37C55.4969 164.157 56.1267 163.944 56.7538 163.729L56.1061 161.837C55.4827 162.05 54.8567 162.263 54.2282 162.474L54.8646 164.37ZM58.6275 163.082C59.2637 162.859 59.8971 162.636 60.5279 162.412L59.8571 160.527C59.2302 160.751 58.6007 160.973 57.9684 161.193L58.6275 163.082ZM62.4518 161.72C63.0903 161.488 63.726 161.255 64.359 161.02L63.6644 159.145C63.0354 159.378 62.4036 159.609 61.7691 159.84L62.4518 161.72ZM66.2496 160.313C66.877 160.076 67.5017 159.838 68.1237 159.599L67.4051 157.732C66.7872 157.97 66.1665 158.207 65.543 158.442L66.2496 160.313ZM69.9813 158.877C70.5977 158.635 71.2115 158.392 71.8225 158.147L71.08 156.29C70.473 156.533 69.8632 156.775 69.2507 157.015L69.9813 158.877ZM73.7112 157.385C74.3428 157.127 74.9716 156.869 75.5974 156.609L74.8299 154.762C74.2083 155.02 73.5837 155.277 72.9562 155.533L73.7112 157.385ZM77.4661 155.825C78.086 155.562 78.7031 155.298 79.3173 155.033L78.5247 153.197C77.9147 153.46 77.3019 153.722 76.6861 153.983L77.4661 155.825ZM81.1511 154.234C81.7595 153.967 82.365 153.698 82.9676 153.428L82.15 151.603C81.5515 151.871 80.9502 152.138 80.346 152.403L81.1511 154.234ZM84.796 152.601C85.4181 152.317 86.0371 152.032 86.653 151.746L85.8095 149.932C85.198 150.217 84.5833 150.5 83.9656 150.782L84.796 152.601ZM88.4915 150.882C89.1013 150.593 89.708 150.303 90.3116 150.012L89.4421 148.211C88.8428 148.5 88.2404 148.788 87.635 149.075L88.4915 150.882ZM92.1135 149.134C92.7111 148.84 93.3056 148.545 93.8972 148.249L93.0015 146.46C92.4143 146.754 91.8241 147.047 91.2309 147.339L92.1135 149.134ZM95.6786 147.348C96.2882 147.037 96.8945 146.725 97.4976 146.412L96.5753 144.637C95.9767 144.948 95.3749 145.258 94.7698 145.567L95.6786 147.348ZM99.2973 145.468C99.894 145.152 100.488 144.835 101.078 144.516L100.129 142.756C99.5427 143.072 98.9538 143.386 98.3616 143.7L99.2973 145.468ZM102.839 143.558C103.423 143.237 104.004 142.915 104.581 142.592L103.605 140.847C103.032 141.167 102.456 141.486 101.876 141.805L102.839 143.558ZM106.325 141.608C106.919 141.27 107.51 140.93 108.097 140.59L107.094 138.86C106.511 139.198 105.925 139.535 105.336 139.87L106.325 141.608ZM109.849 139.564C110.43 139.221 111.007 138.877 111.581 138.531L110.55 136.818C109.981 137.16 109.408 137.502 108.832 137.842L109.849 139.564ZM113.294 137.492C113.861 137.144 114.425 136.796 114.986 136.446L113.927 134.749C113.371 135.096 112.811 135.442 112.249 135.786L113.294 137.492ZM116.697 135.368C117.273 135.003 117.845 134.636 118.414 134.268L117.327 132.589C116.763 132.954 116.196 133.317 115.625 133.68L116.697 135.368ZM120.109 133.161C120.671 132.791 121.229 132.419 121.784 132.047L120.669 130.386C120.119 130.755 119.566 131.124 119.009 131.491L120.109 133.161ZM123.438 130.927C123.988 130.551 124.535 130.174 125.079 129.796L123.937 128.154C123.398 128.529 122.855 128.903 122.31 129.276L123.438 130.927ZM126.753 128.621C127.307 128.228 127.857 127.834 128.404 127.439L127.234 125.818C126.692 126.209 126.146 126.599 125.596 126.989L126.753 128.621ZM130.034 126.252C130.574 125.855 131.11 125.458 131.643 125.059L130.445 123.458C129.917 123.853 129.385 124.247 128.85 124.641L130.034 126.252ZM133.231 123.86C133.772 123.447 134.311 123.034 134.845 122.619L133.619 121.039C133.089 121.45 132.556 121.86 132.018 122.269L133.231 123.86ZM136.446 121.365C136.976 120.946 137.502 120.526 138.025 120.105L136.77 118.547C136.253 118.964 135.731 119.38 135.206 119.796L136.446 121.365ZM139.581 118.84C140.096 118.418 140.608 117.995 141.116 117.571L139.834 116.035C139.331 116.456 138.824 116.875 138.313 117.294L139.581 118.84ZM142.669 116.262C143.187 115.821 143.702 115.379 144.212 114.937L142.903 113.425C142.397 113.864 141.887 114.301 141.373 114.738L142.669 116.262ZM145.733 113.607C146.236 113.163 146.735 112.719 147.231 112.273L145.894 110.786C145.403 111.227 144.908 111.668 144.41 112.108L145.733 113.607ZM148.706 110.935C149.208 110.475 149.707 110.015 150.201 109.554L148.837 108.091C148.347 108.548 147.853 109.004 147.356 109.46L148.706 110.935ZM151.681 108.161C152.17 107.696 152.655 107.23 153.137 106.764L151.746 105.327C151.269 105.789 150.788 106.25 150.303 106.711L151.681 108.161ZM154.57 105.364C155.045 104.896 155.516 104.427 155.984 103.957L154.567 102.546C154.103 103.011 153.637 103.476 153.166 103.94L154.57 105.364ZM157.418 102.503C157.892 102.018 158.362 101.532 158.829 101.046L157.385 99.6617C156.923 100.143 156.457 100.625 155.988 101.105L157.418 102.503ZM160.215 99.5863C160.673 99.0994 161.127 98.6121 161.578 98.1245L160.109 96.7675C159.662 97.2505 159.212 97.7333 158.759 98.2157L160.215 99.5863ZM162.939 96.6369C163.397 96.1322 163.85 95.6271 164.299 95.1218L162.805 93.7928C162.36 94.2933 161.91 94.7937 161.457 95.2937L162.939 96.6369ZM165.635 93.6054C166.076 93.0997 166.514 92.5939 166.947 92.0879L165.428 90.7871C164.998 91.2883 164.565 91.7895 164.128 92.2904L165.635 93.6054ZM168.236 90.5679C168.676 90.0445 169.111 89.5211 169.543 88.9977L168 87.7257C167.572 88.2442 167.141 88.7628 166.705 89.2812L168.236 90.5679ZM170.825 87.4276C171.248 86.9042 171.667 86.3809 172.082 85.8577L170.515 84.6149C170.104 85.1332 169.689 85.6516 169.269 86.1701L170.825 87.4276ZM173.315 84.2886C173.732 83.7525 174.145 83.2166 174.554 82.6809L172.964 81.4675C172.559 81.9982 172.15 82.5291 171.736 83.0603L173.315 84.2886ZM175.778 81.0606C176.182 80.5208 176.582 79.9813 176.978 79.4422L175.366 78.2586C174.974 78.7928 174.578 79.3273 174.177 79.8621L175.778 81.0606ZM178.153 77.8262C178.549 77.277 178.94 76.7283 179.327 76.1801L177.693 75.0264C177.31 75.5696 176.922 76.1133 176.53 76.6574L178.153 77.8262ZM180.492 74.5138C180.876 73.9589 181.256 73.4047 181.632 72.8512L179.977 71.7278C179.605 72.2763 179.229 72.8255 178.848 73.3753L180.492 74.5138ZM182.747 71.1929C183.122 70.6297 183.493 70.0672 183.859 69.5057L182.185 68.4124C181.821 68.9689 181.454 69.5263 181.082 70.0845L182.747 71.1929ZM184.963 67.798C185.327 67.2297 185.686 66.6625 186.041 66.0963L184.347 65.0334C183.995 65.5946 183.639 66.1568 183.278 66.72L184.963 67.798ZM187.094 64.4012C187.45 63.8226 187.802 63.2453 188.149 62.6693L186.436 61.6366C186.092 62.2076 185.744 62.7798 185.391 63.3533L187.094 64.4012ZM189.19 60.9258C189.533 60.346 189.871 59.7677 190.205 59.1909L188.475 58.1883C188.143 58.7602 187.808 59.3335 187.468 59.9082L189.19 60.9258ZM191.195 57.4653C191.533 56.8699 191.867 56.2763 192.196 55.6845L190.449 54.7118C190.122 55.2985 189.791 55.8871 189.456 56.4774L191.195 57.4653ZM193.173 53.9118C193.495 53.3228 193.812 52.7358 194.125 52.1509L192.361 51.2076C192.051 51.7877 191.736 52.3698 191.418 52.9539L193.173 53.9118ZM195.065 50.3757C195.382 49.7704 195.695 49.1676 196.004 48.5672L194.225 47.653C193.919 48.2486 193.608 48.8466 193.294 49.4469L195.065 50.3757ZM196.917 46.7735C197.216 46.1782 197.512 45.5855 197.804 44.9955L196.011 44.1095C195.721 44.6949 195.428 45.283 195.13 45.8736L196.917 46.7735ZM198.701 43.1604C198.997 42.5495 199.289 41.9417 199.576 41.3371L197.769 40.479C197.484 41.0791 197.195 41.6823 196.902 42.2886L198.701 43.1604ZM200.425 39.5332C200.712 38.9169 200.995 38.3041 201.273 37.695L199.454 36.8635C199.178 37.4682 198.897 38.0766 198.612 38.6885L200.425 39.5332ZM202.11 35.846C202.385 35.2336 202.655 34.6253 202.921 34.0211L201.091 33.2151C200.827 33.8152 200.558 34.4194 200.285 35.0275L202.11 35.846ZM203.727 32.1746C203.999 31.5466 204.266 30.9235 204.528 30.3054L202.687 29.5235C202.426 30.1377 202.161 30.7569 201.891 31.3808L203.727 32.1746ZM205.303 28.4663C205.564 27.84 205.821 27.2191 206.074 26.604L204.224 25.8439C203.973 26.4556 203.717 27.0729 203.457 27.6956L205.303 28.4663ZM206.841 24.723C207.092 24.1022 207.338 23.4876 207.581 22.8796L205.723 22.139C205.482 22.7441 205.236 23.3556 204.987 23.9731L206.841 24.723ZM208.328 20.9914C208.578 20.357 208.823 19.7303 209.063 19.1115L207.199 18.387C206.96 19.0035 206.716 19.6277 206.467 20.2593L208.328 20.9914ZM209.775 17.2702C210.025 16.6216 210.27 15.9826 210.51 15.3534L208.641 14.6402C208.402 15.268 208.158 15.9054 207.909 16.5519L209.775 17.2702ZM211.217 13.4957C211.461 12.8537 211.7 12.2229 211.934 11.6039L210.064 10.8952C209.829 11.5143 209.59 12.1445 209.347 12.7858L211.217 13.4957ZM212.646 9.72677C212.887 9.09087 213.124 8.46896 213.356 7.86136L211.488 7.14683C211.255 7.75647 211.018 8.37999 210.776 9.01677L212.646 9.72677ZM214.082 5.97795C214.328 5.34321 214.569 4.72669 214.806 4.12888L212.947 3.39134C212.708 3.99478 212.465 4.61613 212.217 5.25463L214.082 5.97795ZM215.557 2.26729C215.68 1.96811 215.801 1.67462 215.922 1.38688L214.078 0.613116C213.955 0.905931 213.831 1.20415 213.707 1.50766L215.557 2.26729Z" fill="black"/>
</svg>
